<svg xmlns="http://www.w3.org/2000/svg" xmlns:xlink="http://www.w3.org/1999/xlink" width="30" height="20" viewBox="0 0 30 20">
  <defs>
    <clipPath id="clip-path">
      <rect id="Rectangle_1100" data-name="Rectangle 1100" width="30" height="20" rx="5" transform="translate(-9259 -3544)" fill="#fff" stroke="#fff" stroke-width="1"/>
    </clipPath>
  </defs>
  <g id="Mask_Group_50" data-name="Mask Group 50" transform="translate(9259 3544)" clip-path="url(#clip-path)">
    <g id="_206731" data-name="206731" transform="translate(-9259 -3549)">
      <path id="Path_2194" data-name="Path 2194" d="M29.483,24.828H.517A.517.517,0,0,1,0,24.31V5.69a.517.517,0,0,1,.517-.517H29.483A.517.517,0,0,1,30,5.69V24.31A.517.517,0,0,1,29.483,24.828Z" fill="#41479b"/>
      <path id="Path_2195" data-name="Path 2195" d="M14.483,5.172h-.9L8.793,8.312V5.172H6.207V8.312L1.416,5.172h-.9A.517.517,0,0,0,0,5.69V6.1L4.111,8.793H0v2.586H4.111L0,14.072v.41A.517.517,0,0,0,.517,15h.9l4.791-3.139V15H8.793V11.861L13.584,15h.9A.517.517,0,0,0,15,14.483v-.41l-4.111-2.693H15V8.793H10.889L15,6.1V5.69A.517.517,0,0,0,14.483,5.172Z" fill="#f5f5f5"/>
      <g id="Group_5257" data-name="Group 5257">
        <path id="Path_2196" data-name="Path 2196" d="M15,9.31H8.276V5.172H6.724V9.31H0v1.552H6.724V15H8.276V10.862H15Z" fill="#ff4b55"/>
        <path id="Path_2197" data-name="Path 2197" d="M5.69,8.793.247,5.26A.509.509,0,0,0,0,5.69v.027L4.74,8.793h.95Z" fill="#ff4b55"/>
        <path id="Path_2198" data-name="Path 2198" d="M9.743,8.793l5.178-3.361a.51.51,0,0,0-.439-.259h-.112L8.793,8.793Z" fill="#ff4b55"/>
        <path id="Path_2199" data-name="Path 2199" d="M5.243,11.379.074,14.734A.511.511,0,0,0,.517,15h.1l5.578-3.621h-.95Z" fill="#ff4b55"/>
        <path id="Path_2200" data-name="Path 2200" d="M14.992,14.523l-4.844-3.144H9.2l5.5,3.57A.512.512,0,0,0,14.992,14.523Z" fill="#ff4b55"/>
        <path id="Path_2201" data-name="Path 2201" d="M23.172,21.569a.105.105,0,0,1-.06-.019l-.612-.437-.612.437a.105.105,0,0,1-.06.019.1.1,0,0,1-.1-.135l.227-.717-.605-.446a.1.1,0,0,1,.061-.187l.752-.006.238-.714a.1.1,0,0,1,.2,0l.238.714.752.006a.1.1,0,0,1,.061.187l-.605.446.227.717a.1.1,0,0,1-.038.115A.105.105,0,0,1,23.172,21.569Z" fill="#ff4b55"/>
      </g>
      <path id="Path_2202" data-name="Path 2202" d="M22.5,19.4l.261.784.826.006-.665.491.249.788-.672-.48-.672.481.249-.788-.665-.491.826-.006L22.5,19.4m0-.207a.207.207,0,0,0-.2.141l-.215.644-.678.005a.207.207,0,0,0-.121.373l.546.4-.2.647a.207.207,0,0,0,.318.231l.552-.395.552.395a.207.207,0,0,0,.318-.231l-.2-.647.546-.4a.207.207,0,0,0-.121-.373l-.678-.005-.215-.644a.207.207,0,0,0-.2-.141Z" fill="#f5f5f5"/>
      <path id="Path_2203" data-name="Path 2203" d="M23.172,13.23a.1.1,0,0,1-.06-.019l-.612-.438-.612.438a.105.105,0,0,1-.06.019.1.1,0,0,1-.1-.135l.227-.717-.605-.447a.1.1,0,0,1,.061-.187l.752-.006.238-.714a.1.1,0,0,1,.2,0l.238.714.752.006a.1.1,0,0,1,.061.187l-.605.447.227.717a.1.1,0,0,1-.038.115A.105.105,0,0,1,23.172,13.23Z" fill="#ff4b55"/>
      <path id="Path_2204" data-name="Path 2204" d="M22.5,11.057l.261.784.826.006-.665.491.249.788-.672-.481-.672.481.249-.788-.665-.491.826-.006.261-.784m0-.207a.207.207,0,0,0-.2.141l-.215.644-.678.005a.207.207,0,0,0-.121.373l.546.4-.2.647a.207.207,0,0,0,.318.231L22.5,12.9l.552.395a.207.207,0,0,0,.318-.231l-.2-.647.546-.4a.207.207,0,0,0-.121-.373l-.678-.005-.215-.644a.207.207,0,0,0-.2-.141Z" fill="#f5f5f5"/>
      <path id="Path_2205" data-name="Path 2205" d="M26.793,15.816a.1.1,0,0,1-.06-.019l-.612-.438-.612.438a.105.105,0,0,1-.06.019.1.1,0,0,1-.1-.135l.227-.717-.605-.447a.1.1,0,0,1,.061-.187l.752-.006.238-.714a.1.1,0,0,1,.2,0l.238.714.752.006a.1.1,0,0,1,.061.187l-.605.447.227.717a.1.1,0,0,1-.038.115A.106.106,0,0,1,26.793,15.816Z" fill="#ff4b55"/>
      <path id="Path_2206" data-name="Path 2206" d="M26.121,13.644l.261.784.826.006-.665.491.249.788-.672-.481-.672.481.249-.788-.665-.491.826-.006.262-.784m0-.207a.207.207,0,0,0-.2.141l-.215.644-.678.005a.207.207,0,0,0-.121.373l.546.4-.2.647a.207.207,0,0,0,.318.231l.552-.395.552.395a.207.207,0,0,0,.318-.231l-.2-.647.546-.4a.207.207,0,0,0-.121-.373l-.678-.005-.215-.644a.207.207,0,0,0-.2-.141Z" fill="#f5f5f5"/>
      <path id="Path_2207" data-name="Path 2207" d="M19.552,16.851a.1.1,0,0,1-.06-.019l-.612-.438-.612.438a.105.105,0,0,1-.06.019.1.1,0,0,1-.1-.135L18.335,16l-.605-.447a.1.1,0,0,1,.061-.187l.752-.006.238-.714a.1.1,0,0,1,.2,0l.238.714.752.006a.1.1,0,0,1,.061.187L19.424,16l.227.717a.1.1,0,0,1-.038.115A.105.105,0,0,1,19.552,16.851Z" fill="#ff4b55"/>
      <path id="Path_2208" data-name="Path 2208" d="M18.879,14.678l.261.784.826.006-.665.491.249.788-.672-.481-.672.481.249-.788-.665-.491.826-.006.262-.784m0-.207a.207.207,0,0,0-.2.141l-.215.644-.678.005a.207.207,0,0,0-.121.373l.546.4-.2.647a.207.207,0,0,0,.318.231l.552-.395.552.395a.207.207,0,0,0,.318-.231l-.2-.647.546-.4a.207.207,0,0,0-.121-.373l-.678-.005-.215-.644a.207.207,0,0,0-.2-.141Z" fill="#f5f5f5"/>
    </g>
  </g>
</svg>
