<svg xmlns="http://www.w3.org/2000/svg" width="30.8" height="35.053" viewBox="0 0 30.8 35.053">
  <g id="Group_38423" data-name="Group 38423" transform="translate(-8280 15098)">
    <path id="Path_165086" data-name="Path 165086" d="M9.8,5a.975.975,0,0,1,0-1.8L14,.4a2.8,2.8,0,0,1,2.8,0L21,3.1a.975.975,0,0,1,0,1.8L16.8,7.6a2.8,2.8,0,0,1-2.8,0L9.8,4.9h0ZM1.3,10.5a.975.975,0,0,1,0-1.8L5.5,5.9a2.8,2.8,0,0,1,2.8,0l4.2,2.8a.975.975,0,0,1,0,1.8L8.3,13.3a2.8,2.8,0,0,1-2.8,0L1.3,10.5h0Zm16.9,0a.975.975,0,0,1,0-1.8l4.2-2.8a2.8,2.8,0,0,1,2.8,0l4.2,2.8a.975.975,0,0,1,0,1.8l-4.2,2.8a2.8,2.8,0,0,1-2.8,0l-4.2-2.8h0ZM9.7,16a.975.975,0,0,1,0-1.8l4.2-2.7a2.8,2.8,0,0,1,2.8,0l4.2,2.7a.975.975,0,0,1,0,1.8l-4.2,2.7a2.8,2.8,0,0,1-2.8,0L9.7,16h0Z" transform="translate(8280 -15098.025)" fill="#f09f54" fill-rule="evenodd"/>
    <path id="Path_165087" data-name="Path 165087" d="M7.9,17.8c0-.7.6-.9,1.3-.4l4,2.8a3.214,3.214,0,0,1,1.3,2.2v4c0,.7-.6.9-1.3.4L9.2,24a3.214,3.214,0,0,1-1.3-2.2v-4h0ZM0,12.3c0-.7.6-.9,1.3-.4l4,2.8a3.214,3.214,0,0,1,1.3,2.2v4c0,.7-.6.9-1.3.4l-4-2.8A3.214,3.214,0,0,1,0,16.3v-4H0ZM7.9,25.8c0-.7.6-.9,1.3-.4l4,2.8a3.214,3.214,0,0,1,1.3,2.2v4c0,.7-.6.9-1.3.4L9.2,32a3.214,3.214,0,0,1-1.3-2.2v-4h0ZM0,20.2c0-.7.6-.9,1.3-.4l4,2.8a3.214,3.214,0,0,1,1.3,2.2v4c0,.7-.6.9-1.3.4l-4-2.8A3.214,3.214,0,0,1,0,24.2v-4H0Z" transform="translate(8280 -15098.025)" fill="#0069a7" fill-rule="evenodd"/>
    <path id="Path_165088" data-name="Path 165088" d="M24.2,16.9a3.214,3.214,0,0,1,1.3-2.2l4-2.8c.7-.5,1.3-.3,1.3.4v4a3.214,3.214,0,0,1-1.3,2.2l-4,2.8c-.7.5-1.3.3-1.3-.4v-4Zm-7.9,5.5a3.214,3.214,0,0,1,1.3-2.2l4-2.8c.7-.5,1.3-.3,1.3.4v4A3.214,3.214,0,0,1,21.6,24l-4,2.8c-.7.5-1.3.3-1.3-.4v-4Zm7.9,2.4a3.214,3.214,0,0,1,1.3-2.2l4-2.8c.7-.5,1.3-.3,1.3.4v4a3.214,3.214,0,0,1-1.3,2.2l-4,2.8c-.7.5-1.3.3-1.3-.4v-4Zm-7.9,5.5a3.214,3.214,0,0,1,1.3-2.2l4-2.8c.7-.5,1.3-.3,1.3.4v4a3.214,3.214,0,0,1-1.3,2.2l-4,2.8c-.7.5-1.3.3-1.3-.4v-4Z" transform="translate(8280 -15098.025)" fill="#6fa088" fill-rule="evenodd"/>
  </g>
</svg>